<?xml version="1.0" encoding="UTF-8" standalone="no"?>
<!-- Created with Inkscape (http://www.inkscape.org/) -->

<svg
   version="1.1"
   id="svg2"
   width="600"
   height="600"
   viewBox="0 0 600 600"
   sodipodi:docname="45763.eps"
   xmlns:inkscape="http://www.inkscape.org/namespaces/inkscape"
   xmlns:sodipodi="http://sodipodi.sourceforge.net/DTD/sodipodi-0.dtd"
   xmlns="http://www.w3.org/2000/svg"
   xmlns:svg="http://www.w3.org/2000/svg">
  <defs
     id="defs6" />
  <sodipodi:namedview
     id="namedview4"
     pagecolor="#ffffff"
     bordercolor="#000000"
     borderopacity="0.25"
     inkscape:showpageshadow="2"
     inkscape:pageopacity="0.0"
     inkscape:pagecheckerboard="0"
     inkscape:deskcolor="#d1d1d1" />
  <g
     id="g8"
     inkscape:groupmode="layer"
     inkscape:label="ink_ext_XXXXXX"
     transform="matrix(1.3333333,0,0,-1.3333333,0,600)">
    <g
       id="g10"
       transform="scale(0.1)">
      <path
         d="M 4500,0 H 0 V 4500 H 4500 V 0"
         style="fill:#ffffff;fill-opacity:1;fill-rule:nonzero;stroke:none"
         id="path12" />
      <path
         d="m 853.531,3769.18 -82.465,-82.47 c -1.918,-9.2 -6.386,-17.98 -13.527,-25.12 L 656.188,3560.24 c -19.528,-19.53 -51.184,-19.53 -70.711,0 l -23.571,23.57 c -19.527,19.53 -19.527,51.18 0,70.71 l 101.352,101.35 c 6.387,6.39 14.121,10.47 22.254,12.68 l 84.062,84.06 c -56.781,30.47 -129.172,21.83 -177.027,-26.03 L 491.195,3725.23 c -58.484,-58.48 -58.484,-153.64 0,-212.13 l 23.571,-23.57 c 58.488,-58.49 153.648,-58.49 212.132,0 l 101.352,101.35 c 48.219,48.22 56.574,121.33 25.281,178.3 z m -118.633,-104.49 240.696,240.7 c 19.207,19.2 19.207,50.34 0.004,69.55 -19.207,19.2 -50.348,19.2 -69.555,0 l -240.699,-240.7 c -19.207,-19.21 -19.207,-50.35 0,-69.55 19.207,-19.21 50.347,-19.21 69.554,0 z m 413.902,246.74 -101.35,-101.34 c -48.216,-48.23 -121.321,-56.58 -178.294,-25.29 l 82.465,82.47 c 9.199,1.91 17.981,6.38 25.121,13.52 l 101.348,101.35 c 19.53,19.53 19.53,51.19 0,70.72 l -23.57,23.57 c -19.52,19.52 -51.18,19.52 -70.707,0 L 882.461,3975.07 c -6.387,-6.38 -10.465,-14.11 -12.676,-22.25 l -84.066,-84.06 c -30.465,56.78 -21.824,129.17 26.031,177.03 l 101.352,101.35 c 58.484,58.48 153.648,58.48 212.128,0 l 23.57,-23.57 c 58.49,-58.49 58.49,-153.65 0,-212.14"
         style="fill:#434343;fill-opacity:1;fill-rule:nonzero;stroke:none"
         id="path14" />
      <path
         d="m 2589.33,1256.19 c 15.93,15.93 41.75,15.93 57.68,0 15.93,-15.93 15.93,-41.76 0,-57.69 L 2429.84,981.332 c -15.93,-15.934 -41.75,-15.934 -57.68,0 -8.11,8.109 -12.04,18.778 -11.89,29.398 -20.17,12.63 -44.92,14.97 -66.83,7.07 -2.12,-30.128 8.22,-60.991 31.21,-83.98 42.1,-42.09 110.6,-42.09 152.7,0 L 2694.52,1151 c 42.1,42.09 42.1,110.6 0,152.69 -42.1,42.1 -110.6,42.1 -152.7,0 l -197.03,-197.03 c 23.96,-3.72 47.2,-12.75 67.87,-27.14 z M 2319.89,681.121 c -135.62,-3.961 -151.24,-5.262 -193.74,30.438 l -20.36,20.363 c -2.37,2.359 -4.52,4.848 -6.55,7.398 -8.07,0.059 -16.16,-2.949 -22.3,-9.101 l -31.29,-31.289 c 3.9,-5.02 8.02,-9.91 12.63,-14.508 l 20.36,-20.363 c 40.18,-40.18 100.44,-56.7 237.83,-53.438 -1.56,23.488 31.25,32.027 3.42,70.5 z m 86.91,94.258 c 27.58,7.812 48.68,-24.379 70.71,-3.949 0,0 27.45,50.968 15.4,164.379 l -8.77,-8.77 c -17.96,-17.961 -40.32,-28.789 -63.62,-32.66 7.94,-30.328 0.13,-83.731 -13.72,-119 z m -301.01,78.699 152.69,152.702 c 33.74,33.73 88.43,33.73 122.16,0 L 2401,986.422 c 2.15,-2.152 4.16,-4.391 6.04,-6.703 5.87,1.113 11.47,3.851 16.02,8.402 l 35.11,35.109 c -3.04,3.67 -6.23,7.26 -9.66,10.7 l -20.36,20.35 c -59.88,59.88 -157.3,59.88 -217.17,0 L 2058.28,901.59 C 2027.33,870.629 2012.52,829.648 2013.57,789 l 2.29,2.301 c 19.78,19.781 44.91,30.98 70.77,33.687 4.22,10.594 10.59,20.524 19.16,29.09 z m -15.58,-212.387 c 19.96,-14.793 42.45,-24.64 65.85,-29.152 L 1958.18,414.648 c -42.1,-42.097 -110.6,-42.097 -152.7,0 -42.1,42.102 -42.1,110.602 0,152.704 l 217.17,217.168 c 42.1,42.089 110.6,42.101 152.7,0 23.53,-23.532 33.88,-55.309 31.11,-86.11 -22.84,-5.871 -47.83,-1.16 -67.1,14.231 -0.98,8.898 -4.7,17.55 -11.52,24.371 -15.93,15.929 -41.75,15.929 -57.68,0 L 1852.99,519.84 c -15.93,-15.93 -15.93,-41.758 0,-57.692 15.93,-15.929 41.75,-15.918 57.68,0 l 179.54,179.543"
         style="fill:#434343;fill-opacity:1;fill-rule:nonzero;stroke:none"
         id="path16" />
      <path
         d="m 1032.6,2279.24 19.3,56.91 -88.447,-9.69 57.177,-15.69 z m -78.916,-1.49 27.004,-45.98 -5.633,-17.68 39.895,27.06 z m -83.539,-101.18 27.503,19.96 34.219,4.17 -50.34,55.3 z m -108.223,375.45 7.226,56.55 -40.488,-5.92 23.02,-17.6 z m -73.266,-1.59 -0.418,29.17 -34.234,-22.41 47.969,-30.73 z m -5.246,-106.06 -61.711,48.44 9.262,-32.03 -30.84,-19.98 z m 467.76,332.59 c 13.57,13.57 35.57,13.57 49.14,0 13.57,-13.57 13.57,-35.58 0,-49.15 l -185.02,-185.02 c -13.57,-13.57 -35.575,-13.57 -49.145,0 -6.911,6.91 -10.258,16 -10.133,25.05 -17.184,10.76 -38.27,12.75 -56.93,6.03 -1.805,-25.68 7.004,-51.97 26.59,-71.55 35.863,-35.87 94.228,-35.87 130.088,0 l 185.02,185.02 c 35.87,35.86 35.87,94.23 0,130.09 -35.86,35.87 -94.22,35.87 -130.09,0 L 942.828,2649.57 c 20.414,-3.17 40.215,-10.86 57.822,-23.12 z m -160.451,-333.91 -34.156,-34.15 24.902,-19.9 0.59,-17.12 14.98,-3.46 34.155,34.16 c 27.77,27.77 40.3,65.02 37.83,101.43 l -7.47,-7.47 c -15.3,-15.3 -34.35,-24.53 -54.21,-27.83 -3.58,-9.34 -9.086,-18.12 -16.621,-25.66 z m -155.953,-179.51 -20.45,3.11 -37.832,-37.83 c -28.738,-28.74 -75.336,-28.74 -104.074,0 l -17.347,17.35 c -2.012,2.01 -3.848,4.13 -5.579,6.3 -6.871,0.05 -13.761,-2.52 -18.992,-7.75 l -26.664,-26.66 c 3.324,-4.28 6.84,-8.44 10.762,-12.37 l 17.348,-17.34 c 51.007,-51.01 134.011,-51.01 185.019,0 l 37.832,37.83 -15.598,4.02 z m -179.703,86.7 36.472,36.47 -12.277,8.74 -13.871,20.95 -20.637,4.47 -30.16,-30.16 c -26.367,-26.37 -38.988,-61.28 -38.094,-95.91 l 1.957,1.96 c 16.852,16.85 38.262,26.39 60.293,28.7 3.59,9.02 9.016,17.48 16.317,24.78 z m 171.339,198.07 8.739,-17.99 34.156,34.15 c 28.738,28.74 75.336,28.74 104.074,0 l 17.348,-17.34 c 1.832,-1.84 3.543,-3.75 5.14,-5.71 5.001,0.94 9.781,3.28 13.651,7.15 l 29.91,29.92 c -2.59,3.12 -5.3,6.18 -8.23,9.11 l -17.35,17.35 c -51.004,51.01 -134.008,51.01 -185.016,0 l -20.144,-20.15 -4.86,-25.83 z M 641.793,2169.29 c 17.004,-12.6 36.172,-20.99 56.105,-24.84 L 529.309,1975.86 c -35.868,-35.87 -94.227,-35.87 -130.094,0 -35.867,35.87 -35.867,94.23 0,130.09 l 185.019,185.03 c 35.868,35.86 94.231,35.86 130.094,0 20.047,-20.05 28.863,-47.12 26.504,-73.37 -19.449,-5 -40.742,-0.99 -57.164,12.13 -0.832,7.58 -4,14.95 -9.813,20.76 -13.57,13.57 -35.574,13.57 -49.144,0 L 439.688,2065.48 c -13.571,-13.57 -13.571,-35.57 0,-49.15 13.574,-13.57 35.574,-13.57 49.148,0 l 152.957,152.96"
         style="fill:#434343;fill-opacity:1;fill-rule:nonzero;stroke:none"
         id="path18" />
      <path
         d="m 3641.11,3490.44 c -1.14,-1.27 -2.31,-2.52 -3.53,-3.74 l -46.05,-46.05 -0.97,-0.97 -46.05,-46.05 c -27.29,-27.3 -67.5,-33.69 -100.93,-19.32 0,0.01 0,0.02 -0.01,0.02 -7.79,3.34 -15.22,7.79 -22.02,13.38 -1.11,0.91 -2.15,1.94 -3.22,2.91 -1.16,1.04 -2.35,2.03 -3.47,3.14 l -15.69,15.7 c -1.12,1.12 -2.11,2.31 -3.15,3.47 -0.97,1.07 -2,2.11 -2.91,3.21 -5.58,6.81 -10.04,14.24 -13.37,22.03 -0.01,0 -0.02,0 -0.03,0.01 -13.71,31.9 -8.46,69.96 15.77,97.09 0.05,-0.01 0.11,-0.02 0.16,-0.03 1.14,1.27 2.31,2.52 3.53,3.74 l 46.05,46.05 0.97,0.97 46.05,46.05 c 35.76,35.77 93.75,35.77 129.51,0 l 15.83,-15.83 c 8.51,-8.51 14.97,-18.28 19.43,-28.71 24.42,-8.65 52.26,-5.01 73.8,10.93 -7.53,25.49 -21.34,49.51 -41.42,69.59 l -15.83,15.83 c -64.27,64.27 -168.85,64.27 -233.13,0 l -46.05,-46.06 -0.13,0.14 -47.02,-47.02 c -56.76,-56.76 -63.36,-144.94 -19.88,-209.05 0.08,-0.11 0.16,-0.21 0.23,-0.32 1.71,-2.51 3.5,-4.97 5.37,-7.4 0.36,-0.48 0.73,-0.96 1.1,-1.43 1.68,-2.14 3.42,-4.25 5.22,-6.32 0.42,-0.49 0.82,-0.98 1.25,-1.45 2.16,-2.44 4.38,-4.83 6.71,-7.16 l 0.13,-0.14 15.7,-15.69 0.13,-0.14 c 2.33,-2.33 4.73,-4.55 7.16,-6.71 0.48,-0.42 0.97,-0.83 1.45,-1.24 2.08,-1.8 4.18,-3.54 6.32,-5.22 0.48,-0.38 0.95,-0.74 1.43,-1.11 2.43,-1.86 4.9,-3.66 7.4,-5.36 0.11,-0.08 0.22,-0.16 0.33,-0.23 64.11,-43.49 152.28,-36.89 209.04,19.87 l 46.05,46.05 0.97,0.97 46.05,46.06 c 16.33,16.33 28.49,35.27 36.52,55.48 -27.82,-6.8 -56.98,-6.77 -84.8,0.06 z m -85.02,297.29 c -11.37,-11.37 -20.79,-24.2 -28.11,-38.29 22.45,3.39 45.5,2.67 67.7,-2.17 0.14,0.15 93.5,93.51 93.5,93.51 38.96,38.96 102.35,38.96 141.3,0 l 15.83,-15.83 c 8.13,-8.13 14.72,-17.48 19.63,-27.83 19.59,-5.9 40.64,-3.12 57.89,7.56 -7.66,22.6 -20.54,43.34 -37.49,60.3 l -15.83,15.82 c -61.03,61.03 -160.33,61.03 -221.35,0 z m -42.42,-49.59 c 8.04,20.22 20.2,39.15 36.53,55.49 l 46.05,46.05 0.97,0.96 46.05,46.06 c 64.27,64.27 168.85,64.27 233.13,0 l 15.83,-15.83 c 20.08,-20.08 33.88,-44.1 41.42,-69.59 -21.54,-15.94 -49.38,-19.58 -73.8,-10.93 -4.46,10.43 -10.92,20.2 -19.43,28.71 l -15.83,15.83 c -35.76,35.76 -93.75,35.76 -129.52,0 l -46.05,-46.05 -0.97,-0.97 -46.05,-46.05 c -1.22,-1.22 -2.39,-2.48 -3.52,-3.75 -27.82,6.84 -56.98,6.87 -84.81,0.07 z m 372.67,-94.51 c 11.37,11.36 20.78,24.19 28.1,38.28 -22.45,-3.38 -45.5,-2.66 -67.7,2.18 -0.14,-0.15 -93.5,-93.51 -93.5,-93.51 -38.95,-38.96 -102.34,-38.96 -141.3,0 l -15.83,15.83 c -8.13,8.13 -14.72,17.48 -19.62,27.83 -19.6,5.89 -40.64,3.12 -57.89,-7.56 7.65,-22.61 20.54,-43.35 37.49,-60.3 l 15.83,-15.83 c 61.02,-61.03 160.32,-61.03 221.35,0 z m 42.41,49.58 c -8.03,-20.21 -20.19,-39.14 -36.52,-55.48 l -46.05,-46.05 -0.97,-0.97 -46.05,-46.05 c -64.28,-64.27 -168.86,-64.27 -233.13,0 l -15.83,15.83 c -20.08,20.08 -33.89,44.1 -41.42,69.59 21.54,15.94 49.37,19.58 73.8,10.93 4.46,-10.43 10.91,-20.2 19.42,-28.71 l 15.83,-15.83 c 35.77,-35.77 93.75,-35.77 129.52,0 l 46.05,46.05 0.97,0.97 46.05,46.05 c 1.22,1.22 2.39,2.47 3.53,3.74 27.81,-6.83 56.98,-6.86 84.8,-0.07 z m 167.36,148.41 -46.05,-46.05 -0.97,-0.98 -46.05,-46.05 c -64.28,-64.27 -168.86,-64.27 -233.13,0 l -15.83,15.84 c -20.08,20.07 -33.89,44.09 -41.42,69.58 21.54,15.94 49.37,19.58 73.79,10.93 4.46,-10.43 10.92,-20.2 19.43,-28.71 l 15.83,-15.83 c 35.77,-35.76 93.75,-35.76 129.52,0 l 46.05,46.05 0.97,0.97 46.05,46.05 c 27.91,27.92 33.94,69.32 18.28,103.17 -0.76,1.67 -1.52,3.34 -2.39,4.96 -0.56,1.02 -1.19,2.01 -1.79,3.02 -0.88,1.5 -1.73,3.01 -2.71,4.47 -0.87,1.3 -1.85,2.54 -2.8,3.81 -0.82,1.11 -1.59,2.25 -2.48,3.33 -1.91,2.33 -3.94,4.59 -6.11,6.76 l -15.83,15.83 c -2.17,2.18 -4.44,4.2 -6.76,6.11 -1.09,0.89 -2.23,1.66 -3.34,2.49 -1.26,0.94 -2.5,1.93 -3.8,2.79 -1.46,0.98 -2.97,1.83 -4.47,2.72 -1.01,0.59 -2,1.23 -3.02,1.78 -1.63,0.87 -3.29,1.63 -4.96,2.4 -33.85,15.65 -75.26,9.62 -103.17,-18.29 l -46.05,-46.05 -0.97,-0.97 -46.05,-46.05 c -1.22,-1.22 -2.39,-2.47 -3.52,-3.74 -27.82,6.83 -56.98,6.86 -84.81,0.06 8.04,20.21 20.2,39.16 36.53,55.49 l 46.05,46.04 0.97,0.98 46.05,46.05 c 46.49,46.49 114.05,59.33 172.21,38.57 0.89,-0.32 1.77,-0.67 2.65,-1 2.01,-0.76 4.01,-1.54 5.99,-2.38 0.98,-0.42 1.96,-0.84 2.93,-1.27 1.97,-0.88 3.92,-1.8 5.86,-2.77 0.86,-0.42 1.72,-0.82 2.57,-1.26 2.75,-1.42 5.47,-2.89 8.15,-4.47 0.01,-0.01 0.01,-0.01 0.02,-0.02 2.66,-1.57 5.29,-3.25 7.88,-4.98 0.81,-0.55 1.6,-1.12 2.41,-1.68 1.8,-1.26 3.58,-2.54 5.34,-3.87 0.89,-0.68 1.76,-1.35 2.63,-2.04 1.75,-1.38 3.46,-2.8 5.15,-4.25 0.76,-0.66 1.53,-1.29 2.28,-1.96 2.4,-2.13 4.76,-4.32 7.05,-6.62 h 0.01 v 0 l 15.83,-15.83 v 0 0 c 2.3,-2.3 4.49,-4.66 6.62,-7.06 0.67,-0.75 1.3,-1.51 1.95,-2.27 1.46,-1.7 2.88,-3.41 4.25,-5.15 0.69,-0.88 1.37,-1.75 2.04,-2.63 1.34,-1.76 2.62,-3.55 3.88,-5.35 0.56,-0.81 1.13,-1.6 1.67,-2.41 1.74,-2.59 3.42,-5.21 4.99,-7.88 0.01,-0.01 0.01,-0.01 0.01,-0.02 1.58,-2.68 3.06,-5.4 4.47,-8.14 0.44,-0.86 0.85,-1.71 1.27,-2.57 0.96,-1.95 1.89,-3.9 2.77,-5.87 0.43,-0.97 0.85,-1.94 1.26,-2.92 0.84,-1.99 1.63,-3.99 2.39,-6 0.33,-0.88 0.68,-1.76 1,-2.64 13.47,-37.75 12.7,-79.43 -2.15,-116.76 0.04,0.01 0.07,0.01 0.1,0.02 -0.61,-1.53 -1.28,-3.03 -1.93,-4.54 -0.4,-0.9 -0.76,-1.82 -1.17,-2.73 -1.33,-2.94 -2.78,-5.84 -4.29,-8.71 -0.55,-1.03 -1.12,-2.04 -1.69,-3.06 -1.2,-2.16 -2.45,-4.3 -3.76,-6.42 -0.56,-0.91 -1.1,-1.83 -1.69,-2.73 -1.83,-2.85 -3.76,-5.66 -5.79,-8.43 -0.46,-0.62 -0.96,-1.23 -1.43,-1.85 -1.73,-2.28 -3.53,-4.52 -5.39,-6.73 -0.65,-0.77 -1.31,-1.55 -1.97,-2.31 -2.38,-2.71 -4.83,-5.39 -7.41,-7.97"
         style="fill:#434343;fill-opacity:1;fill-rule:nonzero;stroke:none"
         id="path20" />
      <path
         d="m 2633.02,4150 c 16.59,16.6 43.5,16.6 60.1,0 16.6,-16.59 16.6,-43.5 0,-60.1 l -226.27,-226.27 c -16.6,-16.6 -43.51,-16.6 -60.11,0 -8.45,8.44 -12.54,19.56 -12.39,30.63 -21.01,13.15 -46.8,15.6 -69.62,7.37 -2.21,-31.4 8.56,-63.55 32.51,-87.5 43.87,-43.86 115.24,-43.86 159.1,0 l 226.28,226.27 c 43.86,43.87 43.86,115.24 0,159.1 -43.87,43.86 -115.24,43.86 -159.1,0 l -205.29,-205.29 c 24.96,-3.88 49.18,-13.28 70.72,-28.28 z m -364.75,-675.87 c 25.2,30.78 76.22,105.64 96.31,125.74 19.68,19.68 91.92,68.09 121.71,92.28 37.29,30.28 49.29,79.52 46.27,124.05 l -9.15,-9.14 c -18.7,-18.71 -42,-30 -66.28,-34.03 -4.39,-11.43 -12.16,-21.23 -20.34,-31.38 -24.09,-29.93 -67.3,-107.33 -86.98,-127.01 -20.09,-20.1 -100.12,-65.91 -131.04,-91.01 -38.59,-31.34 -92.13,-35.15 -127.28,0 l -21.21,21.21 c -2.46,2.46 -4.71,5.05 -6.83,7.71 -8.4,0.06 -16.83,-3.08 -23.22,-9.48 l -32.61,-32.61 c 4.06,-5.22 8.36,-10.32 13.16,-15.12 l 21.21,-21.21 c 62.39,-62.39 170.39,-68.27 226.28,0 z m -197.99,197.99 c 24.97,30.84 73.52,107.68 93.51,127.67 19.79,19.78 94.44,66.17 124.51,90.35 38.73,31.15 92.13,35.15 127.28,0 l 21.21,-21.21 c 2.25,-2.24 4.34,-4.58 6.29,-6.98 6.12,1.16 11.96,4.01 16.69,8.75 l 36.59,36.58 c -3.17,3.83 -6.49,7.57 -10.07,11.15 l -21.21,21.21 c -62.38,62.38 -171.78,69.38 -226.28,0 -23.63,-30.09 -67.17,-106.16 -86.63,-125.62 -20.32,-20.32 -99.88,-67.34 -131.39,-92.41 -35.69,-28.39 -47.68,-74.95 -46.59,-117.3 l 2.4,2.4 c 20.6,20.61 46.79,32.27 73.73,35.1 4.39,11.03 12.01,20.49 19.96,30.31 z m -16.23,-221.29 c 20.79,-15.42 44.23,-25.68 68.61,-30.38 l -206.18,-206.19 c -43.86,-43.86 -115.23,-43.86 -159.1,0 -43.86,43.87 -43.86,115.24 0,159.1 l 226.28,226.28 c 43.86,43.86 115.23,43.86 159.1,0 24.51,-24.51 35.3,-57.62 32.41,-89.72 -23.79,-6.12 -49.83,-1.21 -69.91,14.83 -1.02,9.27 -4.89,18.29 -12,25.39 -16.6,16.6 -43.51,16.6 -60.11,0 l -226.27,-226.27 c -16.6,-16.6 -16.6,-43.51 0,-60.11 16.6,-16.6 43.51,-16.59 60.1,0 l 187.07,187.07"
         style="fill:#434343;fill-opacity:1;fill-rule:nonzero;stroke:none"
         id="path22" />
      <path
         d="m 3651.84,748.391 h -0.21 V 734.91 c 2.71,1.371 5.45,2.66 8.04,4.281 l 70.73,44.168 v 34.86 c 0,54.242 43.96,98.203 98.2,98.203 h 24 c 12.9,0 25.21,-2.512 36.5,-7.031 25.08,11.949 43.42,35.82 47.67,64.238 -21.78,11.84 -46.32,19.223 -72.38,20.953 l -2.31,0.098 c -3.14,0.172 -6.3,0.3 -9.48,0.3 h -24 c -5.82,0 -11.56,-0.32 -17.23,-0.871 -3.34,-0.328 -6.65,-0.918 -9.97,-1.437 -2.19,-0.34 -4.41,-0.59 -6.58,-1.012 -4.66,-0.922 -9.28,-2.078 -13.87,-3.39 -0.69,-0.188 -1.4,-0.329 -2.09,-0.532 -5.27,-1.566 -10.49,-3.367 -15.65,-5.437 l -4.03,-1.621 -0.06,0.031 C 3696.1,953.66 3651.84,891.031 3651.84,818.219 Z m 234.09,554.009 c -0.14,0.03 -0.28,0.05 -0.42,0.07 -3.19,0.61 -6.42,1.12 -9.68,1.55 -0.64,0.08 -1.27,0.17 -1.92,0.24 -2.89,0.35 -5.81,0.63 -8.75,0.84 -0.68,0.05 -1.36,0.11 -2.04,0.16 -3.49,0.2 -6.99,0.33 -10.52,0.33 h -24.21 c -3.53,0 -7.03,-0.13 -10.51,-0.33 -0.69,-0.05 -1.36,-0.11 -2.05,-0.16 -2.94,-0.21 -5.85,-0.49 -8.75,-0.84 -0.64,-0.07 -1.28,-0.16 -1.92,-0.24 -3.25,-0.43 -6.48,-0.94 -9.68,-1.55 -0.14,-0.02 -0.28,-0.04 -0.42,-0.07 -66.98,-12.84 -120.58,-63.61 -137.65,-129 0.22,-0.06 0.44,-0.14 0.66,-0.2 -3.94,-14.64 -6.23,-29.95 -6.23,-45.81 v -40.74 c 17.44,5.01 35.56,7.59 53.88,7.59 8.31,0 16.55,-0.54 24.68,-1.56 v 34.71 c 0,54.23 43.96,98.2 98.2,98.2 h 24 c 12.9,0 25.21,-2.52 36.5,-7.04 0.48,0.23 0.92,0.53 1.39,0.77 34.21,-14.34 58.55,-47.4 60.15,-86.42 v 0 c 0.1,-1.83 0.16,-3.66 0.16,-5.51 v -69.84 -1.47 -16.7 -53.13 c 0,-54.23 -43.97,-98.199 -98.2,-98.199 h -24 c -12.91,0 -25.21,2.519 -36.5,7.039 -25.08,-11.961 -43.42,-35.82 -47.67,-64.238 11.92,-6.481 24.68,-11.582 38.05,-15.204 l 1.71,-0.437 c 13.55,-3.52 27.38,-5.352 41.18,-5.609 1.08,-0.02 2.14,-0.114 3.23,-0.114 h 24 c 5.15,0 10.21,0.344 15.25,0.782 2.19,0.191 4.39,0.441 6.6,0.718 87.17,10.821 154.91,85.211 154.91,175.262 v 53.13 16.7 1.47 69.84 1.45 c 0,86.07 -61.85,157.92 -143.43,173.56 z m 64.71,-478.67 c 0.1,-1.82 0.16,-3.66 0.16,-5.511 v -69.828 -1.469 -69.832 c 0,-41.391 -25.64,-76.731 -61.88,-91.18 -0.01,0.012 -0.02,0.012 -0.02,0.02 -8.44,-3.379 -17.45,-5.641 -26.85,-6.559 -1.53,-0.152 -3.09,-0.16 -4.64,-0.242 -1.67,-0.078 -3.32,-0.238 -5.01,-0.238 h -23.8 c -1.7,0 -3.35,0.16 -5.03,0.238 -1.54,0.082 -3.1,0.09 -4.63,0.242 -9.4,0.918 -18.41,3.18 -26.84,6.559 -0.01,-0.008 -0.02,-0.008 -0.03,-0.02 -33.46,13.352 -57.77,44.539 -61.31,81.82 l -19.03,-11.878 c -16.93,-10.571 -35.26,-18.34 -54.32,-23.332 17.07,-65.379 70.67,-116.149 137.65,-128.989 0.14,-0.031 0.28,-0.051 0.42,-0.082 3.2,-0.597 6.43,-1.109 9.68,-1.539 0.64,-0.09 1.28,-0.168 1.92,-0.25 2.9,-0.351 5.81,-0.629 8.75,-0.828 0.69,-0.051 1.36,-0.121 2.05,-0.16 3.48,-0.203 6.98,-0.344 10.51,-0.344 h 0.21 23.8 0.2 c 3.53,0 7.03,0.141 10.52,0.344 0.68,0.039 1.36,0.109 2.04,0.16 2.94,0.199 5.86,0.477 8.75,0.828 0.65,0.082 1.28,0.16 1.92,0.25 3.26,0.43 6.49,0.942 9.68,1.539 0.14,0.031 0.28,0.051 0.42,0.082 81.58,15.629 143.43,87.489 143.43,173.559 v 69.832 1.469 69.828 c 0,24.773 -5.14,48.351 -14.37,69.761 -15.95,-26.25 -38.08,-48.339 -64.35,-64.25 z m -138.88,-94.871 c 29.82,18.629 52.41,44.411 67.34,73.661 -8.66,-1.25 -17.49,-1.961 -26.5,-1.961 h -24 c -15.78,0 -31.47,2.062 -46.66,6 -3.99,-3.411 -8.18,-6.649 -12.77,-9.508 L 3664.41,731.609 C 3614.19,700.25 3548.06,715.531 3516.7,765.75 l -6.14,9.84 c -31.36,50.211 -16.08,116.34 34.13,147.699 l 104.77,65.43 c 34.79,21.741 77.21,21.041 110.43,1.871 21.27,8.519 44.42,13.33 68.71,13.33 h 24 c 2.75,0 5.48,-0.12 8.22,-0.24 -56.4,82.39 -168.49,106.61 -253.95,53.24 L 3502.11,991.48 C 3414.38,936.691 3387.57,820.738 3442.37,733 l 6.15,-9.84 c 54.79,-87.73 170.75,-114.531 258.48,-59.73 z m -81.36,264.082 v -6.691 c 0,-1.852 0.06,-3.68 0.16,-5.512 -26.27,-15.906 -48.4,-38 -64.35,-64.238 -8.43,19.551 -13.24,40.961 -14.04,63.379 l 2.02,1.269 c 15.62,9.762 33.56,14.911 51.89,14.911 8.23,0 16.39,-1.098 24.32,-3.118"
         style="fill:#434343;fill-opacity:1;fill-rule:nonzero;stroke:none"
         id="path24" />
      <path
         d="m 3570.76,2092.67 121.23,160.31 c 34.84,34.84 41.45,87.35 19.86,128.92 l -52.52,-52.52 c -0.4,-11.08 -4.78,-22.05 -13.23,-30.51 l -132.22,-174.94 c -11.7,-21.3 -37.96,-29.44 -59.58,-18.96 l -19.09,-11.3 -12.17,-45.58 c 52.97,-27.68 118.8,-8.05 147.72,44.58 z m 340.14,471.01 c -8.46,-8.46 -19.42,-12.84 -30.5,-13.23 l -52.53,-52.53 c 41.57,-21.58 94.09,-14.98 128.93,19.86 l 154.42,154.43 c 43.02,43.02 43.02,113.02 0,156.04 l -22.07,22.07 c -43.02,43.03 -113.02,43.03 -156.04,0 L 3778.68,2695.9 c -35.45,-35.46 -41.61,-89.2 -18.63,-131.1 l 51.3,51.3 c -0.47,12.21 3.9,24.58 13.23,33.9 L 3979,2804.43 c 17.74,17.74 46.51,17.74 64.25,0 l 22.08,-22.07 c 17.74,-17.75 17.74,-46.51 0,-64.26 z m -397.02,-132.59 c -61.78,-50.02 -160.18,-125.17 -160.18,-125.17 -51.58,-30.63 -69,-96.98 -39.7,-148.98 l 34.78,31.67 21.03,1.48 c -11.08,21.23 -3.81,47.65 17.04,60.03 l 172.92,135.08 c 9.33,9.32 21.69,13.69 33.91,13.22 l 51.3,51.3 c -41.9,22.99 -92.13,12.93 -131.1,-18.63 z m 379.21,150.41 -262.9,-262.9 c -12.67,-12.67 -33.22,-12.67 -45.89,0 l -3.09,3.09 c -12.68,12.68 -12.68,33.23 -0.01,45.9 l 262.9,262.9 c 12.68,12.67 33.23,12.67 45.9,0 l 3.09,-3.1 c 12.68,-12.67 12.68,-33.22 0,-45.89"
         style="fill:#434343;fill-opacity:1;fill-rule:nonzero;stroke:none"
         id="path26" />
      <path
         d="m 1933.18,2493.72 c 2.76,15.58 10.1,30.51 22.14,42.56 l 123.75,123.74 c 31.24,31.24 81.89,31.24 113.14,0 l 38.89,-38.89 c 17.91,-17.91 25.5,-42.2 22.87,-65.55 0,0 -0.9,-18.73 22,-40.52 l 27.25,-27.24 c 34.31,57.58 26.88,133.29 -22.63,182.81 l -38.89,38.89 c -58.48,58.48 -153.64,58.48 -212.13,0 l -123.74,-123.75 c -26.47,-26.47 -40.84,-60.45 -43.35,-95.15 10.13,2.03 20.6,3.1 31.33,3.1 z m 15.63,-485 c 69.24,0 127.51,47.22 144.7,111.11 -10.5,6.06 -22.42,9.35 -34.87,9.35 -16.01,0 -31.17,-5.37 -43.5,-15.2 -14.38,-21.27 -38.72,-35.26 -66.33,-35.26 h -55 c -44.19,0 -80,35.82 -80,80 v 175 c 0,44.18 35.81,80 80,80 h 55 c 25.56,0 48.27,-12.04 62.92,-30.7 11.47,-7.79 24.88,-12.2 39.05,-12.2 14.32,0 27.97,4.3 39.52,12.24 -20.47,58.51 -76.08,100.66 -141.49,100.66 h -55 c -82.71,0 -150,-67.28 -150,-150 v -175 c 0,-82.71 67.29,-150 150,-150 z m 699.13,468.97 c -0.3,-24.06 -5.93,-47.2 -16.2,-68.21 31.64,-10.67 54.45,-40.52 54.45,-75.76 v -175 c 0,-44.18 -35.81,-80 -80,-80 h -55 c -44.18,0 -80,35.82 -80,80 v 175 c 0,29.57 16.09,55.32 39.94,69.17 -0.17,0.11 -0.33,0.23 -0.5,0.34 l 26.97,26.98 c 14.67,14.66 21.38,34.27 20.28,53.51 h -6.69 c -82.71,0 -150,-67.28 -150,-150 v -175 c 0,-82.71 67.29,-150 150,-150 h 55 c 82.71,0 150,67.29 150,150 v 175 c 0,68.22 -45.81,125.83 -108.25,143.97 z m -454.23,-643.41 c -31.42,-25.39 -77.58,-23.5 -106.78,5.7 l -123.75,123.75 c -10.07,10.07 -16.85,22.18 -20.43,34.99 h -48.94 c -7.67,0 -15.15,0.71 -22.52,1.76 4.17,-31.56 18.2,-62.05 42.4,-86.25 l 123.74,-123.75 c 56.25,-56.25 146.32,-58.23 205.17,-6.29 l -38.12,38.11 c -3.84,3.85 -7.41,7.86 -10.77,11.98 z m 198.94,549.97 -123.75,123.74 c -16.95,16.95 -24.62,39.61 -23.18,61.79 0,0 0.94,21.6 -21.69,44.27 l -27.25,27.25 c -34.31,-57.58 -26.89,-133.29 22.63,-182.81 l 123.74,-123.74 c 14.2,-14.2 30.58,-24.88 48.04,-32.18 v 31.15 c 0,15.9 2.42,31.22 6.78,45.71 -1.82,1.53 -3.61,3.11 -5.32,4.82 z m 164.6,-385.53 c -3.58,-12.81 -10.36,-24.92 -20.43,-34.99 l -123.75,-123.75 c -31.24,-31.24 -81.89,-31.24 -113.13,0 l -38.89,38.89 c -23.98,23.98 -29.48,59.37 -16.65,88.66 -3.27,6.31 -7.35,12.24 -12.52,17.41 l -36.78,36.79 c -41.24,-58.51 -35.85,-140.06 16.45,-192.35 l 38.89,-38.9 c 58.48,-58.48 153.64,-58.48 212.13,0 l 123.75,123.75 c 24.2,24.2 38.22,54.7 42.4,86.26 -7.38,-1.04 -14.86,-1.77 -22.53,-1.77 z m -289.13,-112.77 36.78,-36.79 c 41.24,58.5 35.85,140.05 -16.45,192.35 l -123.74,123.74 c -58.49,58.49 -153.65,58.49 -212.13,0 l -38.9,-38.89 c -11.18,-11.18 -20.18,-23.72 -27.09,-37.07 2.39,-0.25 4.76,-0.57 7.22,-0.57 h 55 c 13.58,0 26.21,3.99 36.95,10.72 l 16.31,16.31 c 31.24,31.25 81.9,31.25 113.14,0 l 123.74,-123.74 c 24.01,-24 29.49,-59.43 16.62,-88.75 3.25,-6.29 7.39,-12.16 12.55,-17.31 z m 279.3,279.3 c -19.02,19.03 -41.96,31.76 -66.23,38.4 v -44.93 c 0,-14.3 4.49,-27.49 11.88,-38.58 1.65,-1.4 3.3,-2.83 4.86,-4.39 l 16.26,-16.25 c 10.75,-6.76 23.39,-10.78 37,-10.78 h 55 c 2.47,0 4.9,0.14 7.3,0.39 -6.91,13.42 -15.94,26.02 -27.17,37.25 z m -242.52,491.87 2.9,2.9 c 31.24,31.24 81.89,31.24 113.13,0 l 123.75,-123.74 c 31.24,-31.25 31.24,-81.9 0,-113.14 l -38.9,-38.89 c -3.32,-3.32 -6.9,-6.22 -10.61,-8.83 -8.71,-11.67 -13.98,-26.05 -13.98,-41.7 v -39.29 c 27.17,5.89 53.02,19.25 74.09,40.32 l 38.89,38.89 c 58.49,58.49 58.49,153.64 0,212.13 l -123.74,123.75 c -58.49,58.48 -153.65,58.48 -212.13,0 l -1.23,-1.23 30.59,-30.59 c 6.41,-6.41 12.09,-13.34 17.24,-20.58 z m -61.97,-236.29 -30.59,30.6 c -6.46,6.45 -12.13,13.37 -17.23,20.58 l -87.76,-87.76 c -31.24,-31.24 -81.89,-31.24 -113.13,0 l -9.14,9.13 c -10.6,6.48 -22.97,10.34 -36.27,10.34 h -55 c -3.59,0 -7.09,-0.35 -10.54,-0.87 6.21,-10.4 13.62,-20.27 22.56,-29.21 l 38.89,-38.89 c 58.48,-58.48 153.64,-58.49 212.13,0 z m -214.12,-138.27 v -66.34 c 9.73,1.84 19.69,2.9 29.83,2.9 13.76,0 27.19,-1.9 40.17,-5.23 v 74.34 c -15.34,-4.8 -31.47,-7.34 -48.02,-7.34 v 0 c -7.44,0 -14.75,0.67 -21.98,1.67 z m 355.98,-166.81 -78.78,-78.77 c -3.29,4 -6.78,7.88 -10.49,11.59 l -38.45,38.46 78.22,78.22 c 16.3,16.3 35.5,27.89 55.9,35.1 v -41.63 c 0,-11.82 1.44,-23.28 3.9,-34.37 -3.6,-2.56 -7.07,-5.37 -10.3,-8.6"
         style="fill:#434343;fill-opacity:1;fill-rule:nonzero;stroke:none"
         id="path28" />
      <path
         d="M 633.148,845.422 H 374.152 c -24.625,0 -44.586,19.957 -44.586,44.578 0,24.621 19.961,44.582 44.586,44.582 h 321.879 c 24.625,0 44.586,-19.961 44.586,-44.582 0,-14.371 -6.914,-27.008 -17.469,-35.16 v -73.551 c 0,-0.828 0.176,-1.629 0.204,-2.449 50.011,12.301 87.269,57.398 87.269,111.16 0,63.18 -51.406,114.58 -114.59,114.58 H 374.156 c -63.183,0 -114.59,-51.4 -114.59,-114.58 0,-63.18 51.407,-114.578 114.59,-114.59 h 259.207 c -0.07,1.961 -0.215,3.91 -0.215,5.879 z m 80.348,167.798 c 3.555,46.45 42.289,83.06 89.652,83.06 h 30 c 3.168,0 6.297,-0.17 9.383,-0.49 3.504,5.14 5.617,11.3 5.617,17.99 v 51.74 c -4.945,0.46 -9.937,0.76 -15,0.76 h -30 c -85.421,0 -155.218,-67.34 -159.582,-151.69 h 52.465 c 5.942,0 11.746,-0.56 17.465,-1.37 z M 713.148,781.281 V 920.02 c -5.05,2.902 -10.886,4.57 -17.117,4.57 H 643.148 V 781.281 c 0,-45.601 19.282,-86.711 50,-115.89 v 3.39 c 0,29.141 10.266,55.91 27.317,76.957 -4.695,10.91 -7.317,22.91 -7.317,35.543 z m 552.692,223.299 h -262.7 v -69.998 h 262.7 c 24.63,0 44.59,-19.961 44.59,-44.582 0,-24.621 -19.96,-44.578 -44.59,-44.578 H 943.965 c -24.621,0 -44.586,19.957 -44.586,44.578 0,12.641 5.316,24 13.769,32.109 v 78.141 C 864.906,986.75 829.379,942.488 829.379,890 c 0,-63.18 51.406,-114.578 114.59,-114.59 h 321.871 c 63.19,0 114.59,51.41 114.59,114.59 0,63.18 -51.4,114.58 -114.59,114.58 z M 921.98,767.48 c -6.656,-43.14 -43.832,-76.199 -88.832,-76.199 h -30 c -3.48,0 -6.902,0.25 -10.277,0.629 -5.988,-5.898 -9.723,-14.082 -9.723,-23.129 v -46.109 c 6.567,-0.82 13.211,-1.391 20,-1.391 h 30 c 82.868,0 151.204,63.34 159.196,144.141 h -48.375 c -7.516,0 -14.836,0.777 -21.989,2.058 z m 1.168,238.8 V 862.559 c 5.809,-4.418 12.969,-7.137 20.817,-7.137 h 49.183 v 150.858 c 0,48.03 -21.378,91.08 -55,120.43 v -12.93 c 0,-26.45 -8.492,-50.91 -22.812,-70.93 4.984,-11.18 7.812,-23.54 7.812,-36.57 z m -150,427.5 c 0,23.47 19.028,42.5 42.5,42.5 23.473,0 42.5,-19.03 42.5,-42.5 v -320 c 0,-23.47 -19.027,-42.5 -42.5,-42.5 -11.949,0 -22.707,4.97 -30.425,12.9 -24.16,-5.56 -44.121,-22.06 -54.442,-44.02 20.641,-23.76 50.992,-38.88 84.867,-38.88 62.032,0 112.5,50.47 112.5,112.5 v 320 c 0,62.03 -50.468,112.5 -112.5,112.5 -62.031,0 -112.5,-50.47 -112.5,-112.5 v -290.32 c 20.399,14.91 44.165,25.38 70,30.01 z m 85,-820.448 c 25.606,3.797 49.43,13.129 70,27.039 v -291.59 c 0,-62.031 -50.468,-112.5 -112.5,-112.5 -62.031,0 -112.5,50.469 -112.5,112.5 v 320 c 0,62.028 50.469,112.5 112.5,112.5 34.668,0 65.704,-15.781 86.36,-40.519 -12.496,-21.153 -34.379,-36.09 -59.918,-38.953 -7.277,5.839 -16.391,9.472 -26.442,9.472 -23.472,0 -42.5,-19.031 -42.5,-42.5 v -320 c 0,-23.472 19.028,-42.5 42.5,-42.5 23.473,0 42.5,19.028 42.5,42.5 v 264.551"
         style="fill:#434343;fill-opacity:1;fill-rule:nonzero;stroke:none"
         id="path30" />
    </g>
  </g>
</svg>
